# xmcd
#
# Track frame offsets:
#	150
#	17224
#	33722
#	52973
#	71743
#	90049
#	108361
#	133334
#	152234
#	170444
#	188199
#	209164
#	230870
#
# Disc length: 3316 seconds
#
# Revision: 4
# Processed by: cddbd v1.5.1PL0 Copyright (c) Steve Scherf et al.
# Submitted via: dBpowerAMP V4.0
#
DISCID=bc0cf20d
DTITLE=Giorgia - Senza Ali
DYEAR=2001
DGENRE=Blues
TTITLE0=Senza Ali
TTITLE1=Save The World
TTITLE2=Di Sole E D'Azzurro
TTITLE3=Interstellare
TTITLE4=Un Posto Migliore
TTITLE5=Un Sole Dentro Al Cuore
TTITLE6=Prima Di Domani
TTITLE7=Canzone Degli Innamorati
TTITLE8=Qualcosa Cambierà
TTITLE9=Ho Bisogno Di Un Sogno
TTITLE10=Il Tempo
TTITLE11=Il Mare Sconosciuto
TTITLE12=Girasole [acoustica]
EXTD=
EXTT0=
EXTT1=
EXTT2=
EXTT3=
EXTT4=
EXTT5=
EXTT6=
EXTT7=
EXTT8=
EXTT9=
EXTT10=
EXTT11=
EXTT12=
PLAYORDER=
